<svg xmlns="http://www.w3.org/2000/svg" xmlns:xlink="http://www.w3.org/1999/xlink" version="1.1" id="Your_Icon" x="0px" y="0px" width="100px" height="100px" viewBox="0 0 100 100" enable-background="new 0 0 100 100" xml:space="preserve">
<g>
	<path fill="#000000" d="M91.657,38.145c8.267-8.269,8.267-21.674,0-29.943c-8.27-8.269-21.676-8.269-29.944,0L49.93,19.986   L19.986,49.929L8.202,61.714c-8.269,8.269-8.269,21.675,0,29.943c8.269,8.268,21.674,8.268,29.942,0L49.93,79.873l29.942-29.944   L91.657,38.145z M54.568,30.107c1.279-1.277,3.191-1.529,4.721-0.76l1.816,1.816c0.77,1.531,0.519,3.443-0.76,4.721   c-1.595,1.595-4.182,1.595-5.777,0C52.975,34.289,52.975,31.704,54.568,30.107z M46.467,38.21c1.595-1.595,4.181-1.595,5.776,0   c1.596,1.596,1.596,4.183,0,5.778c-1.595,1.595-4.182,1.595-5.776,0C44.871,42.393,44.871,39.806,46.467,38.21z M36.036,60.193   c-1.595,1.597-4.182,1.597-5.776,0c-1.596-1.595-1.596-4.181,0-5.775c1.595-1.596,4.182-1.597,5.776,0   C37.632,56.013,37.632,58.599,36.036,60.193z M38.362,46.314c1.595-1.595,4.182-1.595,5.777,0c1.595,1.595,1.595,4.182,0,5.778   c-1.596,1.595-4.183,1.595-5.777,0C36.768,50.496,36.768,47.909,38.362,46.314z M45.921,70.079c-1.596,1.595-4.182,1.595-5.778,0   c-1.595-1.596-1.595-4.183,0-5.777c1.596-1.595,4.182-1.595,5.778,0C47.516,65.896,47.516,68.483,45.921,70.079z M54.023,61.975   c-1.596,1.597-4.181,1.597-5.776,0c-1.596-1.596-1.596-4.182,0-5.776c1.595-1.595,4.181-1.595,5.776,0S55.619,60.379,54.023,61.975   z M62.127,53.872c-1.595,1.596-4.183,1.596-5.775,0c-1.597-1.595-1.597-4.182,0-5.776c1.593-1.596,4.181-1.596,5.775,0   C63.722,49.69,63.722,52.277,62.127,53.872z M70.231,45.77c-1.596,1.595-4.183,1.595-5.777,0c-1.595-1.596-1.595-4.183,0-5.777   c1.276-1.278,3.189-1.529,4.72-0.761l1.816,1.816C71.761,42.579,71.509,44.491,70.231,45.77z"/>
	<path fill="#000000" d="M17.021,46.964l29.942-29.943l-8.82-8.82c-8.268-8.269-21.673-8.269-29.942,0s-8.269,21.674,0,29.943   L17.021,46.964z"/>
	<path fill="#000000" d="M82.835,52.893L52.893,82.836l8.82,8.821c8.269,8.268,21.675,8.268,29.944,0   c8.267-8.269,8.267-21.675,0-29.943L82.835,52.893z"/>
</g>
</svg>